<svg xmlns="http://www.w3.org/2000/svg" xmlns:xlink="http://www.w3.org/1999/xlink" width="851" zoomAndPan="magnify" viewBox="0 0 638.25 135.000003" height="180" preserveAspectRatio="xMidYMid meet" version="1.0"><path fill="#231f20" d="M 75.800781 104.914062 L 75.371094 105.0625 C 72.589844 106.003906 69.785156 106.886719 66.960938 107.710938 C 64.359375 108.480469 61.730469 109.164062 59.078125 109.757812 C 58.449219 109.902344 57.808594 110.042969 57.167969 110.167969 C 56.53125 110.296875 55.785156 110.4375 55.085938 110.546875 C 54.386719 110.660156 53.742188 110.773438 53.066406 110.832031 C 52.855469 110.832031 52.632812 110.832031 52.410156 110.875 C 50.78125 109.453125 49.257812 108.011719 47.835938 106.566406 C 44.222656 102.867188 41.070312 98.808594 38.375 94.394531 C 35.679688 89.976562 33.515625 85.3125 31.882812 80.40625 C 31.753906 80.023438 31.628906 79.660156 31.511719 79.257812 C 31.910156 79.644531 32.328125 80.003906 32.738281 80.40625 C 34.128906 81.683594 35.570312 82.921875 37.035156 84.125 L 38.351562 85.175781 C 41.46875 87.621094 44.714844 89.882812 48.082031 91.964844 C 56.824219 97.351562 66.0625 101.664062 75.800781 104.914062 Z M 75.800781 104.914062 " fill-opacity="1" fill-rule="nonzero"/><path fill="#cc202a" d="M 150.6875 43.925781 C 150.210938 45.199219 149.648438 46.441406 149.121094 47.691406 C 147.972656 50.148438 146.761719 52.566406 145.402344 54.890625 C 144.042969 57.214844 142.5625 59.46875 141 61.652344 C 139.4375 63.832031 137.738281 65.902344 135.972656 67.917969 C 134.933594 69.101562 133.855469 70.257812 132.738281 71.394531 C 133.515625 67.328125 133.933594 63.222656 133.988281 59.082031 L 134.734375 15.902344 C 108.8125 20.003906 84.0625 7.445312 81.25 5.957031 L 81.125 5.890625 L 80.992188 5.957031 C 78.179688 7.445312 53.429688 19.988281 27.515625 15.871094 L 28.261719 59.050781 C 28.320312 63.457031 28.785156 67.820312 29.660156 72.140625 C 28.289062 70.777344 26.96875 69.367188 25.6875 67.917969 C 23.933594 65.902344 22.230469 63.824219 20.667969 61.652344 C 19.109375 59.476562 17.628906 57.183594 16.269531 54.890625 C 14.90625 52.597656 13.6875 50.148438 12.550781 47.691406 C 12.050781 46.441406 11.457031 45.199219 10.980469 43.925781 C 10.507812 42.652344 10.039062 41.363281 9.554688 40.082031 C 9.792969 41.421875 10.039062 42.785156 10.363281 44.117188 C 10.691406 45.449219 11.0625 46.777344 11.441406 48.109375 C 12.289062 50.75 13.28125 53.332031 14.417969 55.859375 C 15.585938 58.386719 16.898438 60.839844 18.351562 63.214844 L 19.457031 64.980469 L 20.640625 66.699219 C 21.019531 67.285156 21.441406 67.835938 21.851562 68.402344 C 22.261719 68.96875 22.675781 69.527344 23.117188 70.0625 C 25.6875 73.347656 28.484375 76.421875 31.511719 79.289062 C 31.910156 79.675781 32.328125 80.03125 32.738281 80.433594 C 34.128906 81.714844 35.570312 82.949219 37.035156 84.15625 L 38.351562 85.207031 C 41.46875 87.648438 44.714844 89.914062 48.082031 91.996094 C 56.824219 97.375 66.066406 101.6875 75.800781 104.929688 L 75.371094 105.078125 C 72.589844 106.019531 69.785156 106.902344 66.960938 107.726562 C 64.359375 108.496094 61.730469 109.179688 59.078125 109.773438 C 58.449219 109.914062 57.808594 110.058594 57.167969 110.183594 C 56.53125 110.308594 55.785156 110.453125 55.085938 110.5625 C 54.386719 110.675781 53.742188 110.785156 53.066406 110.847656 C 52.855469 110.847656 52.632812 110.847656 52.410156 110.890625 L 52.714844 111.152344 C 61.195312 118.363281 70.613281 124.003906 80.96875 128.074219 L 81.101562 128.117188 L 81.230469 128.074219 C 93.183594 123.226562 102.425781 117.300781 109.578125 111.085938 C 109.648438 111.03125 109.714844 110.972656 109.78125 110.914062 L 109.585938 110.914062 C 109.246094 110.914062 108.90625 110.890625 108.566406 110.855469 C 107.898438 110.792969 107.230469 110.683594 106.554688 110.570312 L 105.625 110.414062 L 104.933594 110.28125 C 104.136719 110.125 103.347656 109.960938 102.566406 109.78125 C 99.910156 109.175781 97.285156 108.492188 94.6875 107.734375 C 91.863281 106.90625 89.054688 106.023438 86.269531 105.085938 L 85.847656 104.933594 C 95.582031 101.691406 104.820312 97.378906 113.566406 92.003906 C 117.726562 89.421875 121.695312 86.566406 125.460938 83.433594 C 127.347656 81.871094 129.171875 80.230469 130.933594 78.511719 C 133.648438 75.875 136.175781 73.066406 138.507812 70.085938 C 138.949219 69.550781 139.363281 68.992188 139.773438 68.425781 C 140.183594 67.859375 140.605469 67.308594 140.992188 66.722656 L 142.167969 65 L 143.28125 63.238281 C 144.753906 60.847656 146.078125 58.378906 147.261719 55.835938 C 148.402344 53.308594 149.394531 50.726562 150.234375 48.085938 C 150.605469 46.753906 150.976562 45.4375 151.3125 44.097656 C 151.648438 42.753906 151.878906 41.402344 152.125 40.0625 C 151.625 41.363281 151.214844 42.667969 150.6875 43.925781 Z M 94.226562 109.753906 C 95.585938 109.992188 96.941406 110.214844 98.300781 110.414062 C 99.660156 110.617188 101.027344 110.800781 102.398438 110.921875 C 102.910156 110.972656 103.421875 111.019531 103.945312 111.054688 L 103.871094 111.113281 C 96.90625 116.386719 89.363281 120.628906 81.242188 123.84375 L 81.125 123.890625 L 81 123.84375 C 72.828125 120.609375 65.246094 116.332031 58.246094 111.011719 C 58.589844 111.011719 58.921875 110.949219 59.265625 110.921875 C 60.632812 110.800781 62 110.617188 63.363281 110.414062 C 64.722656 110.214844 66.082031 109.992188 67.4375 109.753906 C 71.800781 108.933594 76.136719 107.882812 80.402344 106.632812 L 80.828125 106.5 C 80.96875 106.550781 81.117188 106.589844 81.257812 106.632812 C 85.535156 107.882812 89.863281 108.933594 94.226562 109.753906 Z M 130.367188 59.632812 C 130.285156 65.144531 129.515625 70.558594 128.0625 75.878906 C 122.855469 80.53125 117.273438 84.683594 111.328125 88.339844 C 102.109375 93.992188 92.445312 98.722656 82.328125 102.539062 L 80.84375 103.105469 L 79.355469 102.539062 C 69.242188 98.722656 59.574219 93.992188 50.359375 88.339844 C 45.144531 85.125 40.207031 81.53125 35.539062 77.558594 C 35.152344 77.234375 34.796875 76.90625 34.394531 76.5625 C 32.808594 71.03125 31.96875 65.386719 31.875 59.632812 L 31.210938 19.429688 C 55.332031 23.273438 78.382812 11.585938 81.027344 10.207031 C 81.066406 10.179688 81.109375 10.15625 81.15625 10.140625 L 81.273438 10.207031 C 83.890625 11.585938 106.933594 23.273438 131.050781 19.429688 Z M 130.367188 59.632812 " fill-opacity="1" fill-rule="nonzero"/><path fill="#231f20" d="M 81.242188 10.183594 L 81.125 10.117188 C 81.078125 10.132812 81.039062 10.15625 81 10.183594 C 78.382812 11.5625 55.332031 23.25 31.183594 19.410156 L 31.84375 59.609375 C 31.933594 65.371094 32.773438 71.023438 34.359375 76.5625 C 34.738281 76.90625 35.101562 77.234375 35.503906 77.558594 C 40.167969 81.53125 45.109375 85.125 50.320312 88.339844 C 59.539062 93.992188 69.203125 98.722656 79.316406 102.539062 L 80.804688 103.105469 L 82.292969 102.539062 C 92.40625 98.722656 102.070312 93.992188 111.289062 88.339844 C 117.242188 84.683594 122.828125 80.53125 128.039062 75.878906 C 129.492188 70.558594 130.261719 65.144531 130.347656 59.632812 L 131 19.429688 C 106.902344 23.25 83.859375 11.5625 81.242188 10.183594 Z M 93.839844 70.390625 C 93.1875 70.390625 92.539062 70.328125 91.898438 70.199219 C 91.257812 70.074219 90.636719 69.886719 90.035156 69.636719 C 89.429688 69.386719 88.855469 69.078125 88.3125 68.714844 C 87.769531 68.355469 87.269531 67.941406 86.804688 67.480469 C 86.34375 67.015625 85.933594 66.515625 85.570312 65.972656 C 85.207031 65.425781 84.898438 64.855469 84.648438 64.25 C 84.398438 63.644531 84.210938 63.023438 84.082031 62.382812 C 83.953125 61.742188 83.890625 61.09375 83.890625 60.441406 C 83.890625 59.785156 83.953125 59.136719 84.082031 58.496094 C 84.207031 57.855469 84.398438 57.234375 84.648438 56.628906 C 84.898438 56.023438 85.203125 55.453125 85.566406 54.90625 C 85.929688 54.363281 86.339844 53.859375 86.800781 53.398438 C 87.265625 52.9375 87.765625 52.523438 88.308594 52.160156 C 88.851562 51.796875 89.425781 51.492188 90.027344 51.242188 C 90.632812 50.992188 91.253906 50.800781 91.894531 50.675781 C 92.535156 50.546875 93.179688 50.484375 93.835938 50.484375 C 94.488281 50.484375 95.132812 50.546875 95.773438 50.675781 C 96.414062 50.804688 97.035156 50.992188 97.640625 51.242188 C 98.242188 51.492188 98.816406 51.800781 99.359375 52.164062 C 99.902344 52.527344 100.402344 52.941406 100.863281 53.402344 C 101.324219 53.863281 101.738281 54.367188 102.101562 54.910156 C 102.460938 55.457031 102.769531 56.03125 103.019531 56.632812 C 103.269531 57.238281 103.457031 57.859375 103.582031 58.503906 C 103.710938 59.144531 103.773438 59.789062 103.773438 60.445312 C 103.773438 61.097656 103.710938 61.746094 103.585938 62.386719 C 103.457031 63.027344 103.269531 63.648438 103.019531 64.253906 C 102.769531 64.855469 102.464844 65.429688 102.101562 65.972656 C 101.742188 66.515625 101.328125 67.019531 100.867188 67.480469 C 100.40625 67.945312 99.902344 68.355469 99.363281 68.71875 C 98.820312 69.082031 98.246094 69.386719 97.644531 69.636719 C 97.039062 69.886719 96.417969 70.074219 95.777344 70.203125 C 95.136719 70.328125 94.492188 70.390625 93.839844 70.390625 Z M 93.839844 70.390625 " fill-opacity="1" fill-rule="nonzero"/><path fill="#231f20" d="M 131.015625 78.492188 C 129.421875 83.769531 127.222656 88.785156 124.421875 93.53125 C 121.617188 98.28125 118.289062 102.625 114.433594 106.566406 C 113.007812 108.054688 111.460938 109.46875 109.832031 110.898438 L 109.640625 110.898438 C 109.296875 110.898438 108.957031 110.878906 108.621094 110.839844 C 107.949219 110.78125 107.28125 110.667969 106.605469 110.554688 L 105.675781 110.398438 L 104.984375 110.265625 C 104.1875 110.109375 103.402344 109.945312 102.621094 109.765625 C 99.964844 109.160156 97.335938 108.480469 94.738281 107.71875 C 91.914062 106.890625 89.109375 106.007812 86.320312 105.070312 L 85.898438 104.921875 C 95.632812 101.675781 104.875 97.363281 113.617188 91.988281 C 117.78125 89.40625 121.746094 86.550781 125.511719 83.417969 C 127.402344 81.851562 129.234375 80.207031 131.015625 78.492188 Z M 131.015625 78.492188 " fill-opacity="1" fill-rule="nonzero"/><path fill="#231f20" d="M 103.945312 111.054688 L 103.871094 111.113281 C 96.90625 116.386719 89.363281 120.628906 81.242188 123.84375 L 81.125 123.890625 L 81 123.84375 C 72.828125 120.609375 65.246094 116.332031 58.246094 111.011719 C 58.589844 111.011719 58.921875 110.949219 59.265625 110.921875 C 60.632812 110.800781 62 110.617188 63.363281 110.414062 C 64.722656 110.214844 66.082031 109.992188 67.4375 109.753906 C 71.800781 108.933594 76.136719 107.882812 80.402344 106.632812 L 80.828125 106.5 C 80.96875 106.550781 81.117188 106.589844 81.257812 106.632812 C 85.535156 107.882812 89.863281 108.933594 94.226562 109.753906 C 95.585938 109.992188 96.941406 110.214844 98.300781 110.414062 C 99.660156 110.617188 101.027344 110.800781 102.398438 110.921875 C 102.910156 110.972656 103.421875 111.019531 103.945312 111.054688 Z M 103.945312 111.054688 " fill-opacity="1" fill-rule="nonzero"/><path fill="#231f20" d="M 101.273438 53.164062 L 101.273438 53.304688 L 101.148438 53.238281 Z M 101.273438 53.164062 " fill-opacity="1" fill-rule="nonzero"/><path fill="#231f20" d="M 101.109375 53.238281 C 101.0625 53.257812 101.019531 53.277344 100.976562 53.304688 L 100.976562 53.164062 Z M 101.109375 53.238281 " fill-opacity="1" fill-rule="nonzero"/><path fill="#cc202a" d="M 116.144531 51.816406 C 114.457031 55.214844 112.128906 58.09375 109.164062 60.460938 C 109.164062 60.460938 109.3125 48.175781 97.171875 45.464844 C 96.785156 44.464844 96.316406 43.507812 95.757812 42.589844 C 95.199219 41.675781 94.5625 40.820312 93.851562 40.019531 C 93.136719 39.21875 92.359375 38.488281 91.511719 37.832031 C 90.667969 37.175781 89.769531 36.597656 88.820312 36.101562 C 87.871094 35.609375 86.882812 35.203125 85.859375 34.886719 C 84.835938 34.574219 83.792969 34.351562 82.730469 34.226562 C 81.664062 34.101562 80.601562 34.074219 79.53125 34.140625 C 78.460938 34.210938 77.410156 34.375 76.371094 34.632812 C 75.332031 34.894531 74.324219 35.246094 73.347656 35.6875 C 72.375 36.128906 71.445312 36.660156 70.566406 37.269531 C 69.6875 37.882812 68.871094 38.566406 68.113281 39.328125 C 67.359375 40.089844 66.679688 40.910156 66.074219 41.792969 C 65.46875 42.679688 64.945312 43.609375 64.507812 44.589844 C 64.074219 45.566406 63.726562 46.578125 63.472656 47.621094 C 63.21875 48.660156 63.0625 49.71875 63 50.789062 C 62.9375 51.859375 62.972656 52.925781 63.101562 53.988281 C 63.234375 55.054688 63.460938 56.097656 63.78125 57.121094 C 64.101562 58.144531 64.511719 59.128906 65.011719 60.078125 C 65.511719 61.027344 66.09375 61.921875 66.753906 62.765625 C 67.414062 63.605469 68.148438 64.382812 68.949219 65.09375 C 69.753906 65.804688 70.613281 66.433594 71.53125 66.988281 C 72.449219 67.539062 73.40625 68.007812 74.410156 68.386719 C 75.410156 68.765625 76.4375 69.050781 77.492188 69.242188 C 78.546875 69.433594 79.609375 69.527344 80.679688 69.527344 L 81.242188 69.527344 C 81.988281 71.582031 86.144531 73.914062 86.144531 73.914062 C 61.695312 78.058594 45.316406 51.816406 45.316406 51.816406 C 45.316406 51.816406 77.304688 1.199219 116.144531 51.816406 Z M 116.144531 51.816406 " fill-opacity="1" fill-rule="nonzero"/><path fill="#cc202a" d="M 115.460938 74.925781 L 106.605469 66.78125 C 106.191406 66.367188 105.695312 66.121094 105.117188 66.035156 C 105.347656 65.574219 105.550781 65.097656 105.71875 64.609375 C 105.890625 64.121094 106.03125 63.625 106.144531 63.121094 C 106.253906 62.613281 106.332031 62.105469 106.378906 61.589844 C 106.425781 61.074219 106.441406 60.558594 106.425781 60.042969 C 106.410156 59.523438 106.363281 59.011719 106.285156 58.5 C 106.207031 57.988281 106.09375 57.484375 105.953125 56.988281 C 105.8125 56.488281 105.640625 56.003906 105.441406 55.527344 C 105.242188 55.050781 105.011719 54.585938 104.753906 54.140625 C 104.496094 53.691406 104.210938 53.261719 103.898438 52.847656 C 103.589844 52.433594 103.253906 52.042969 102.894531 51.671875 C 102.535156 51.300781 102.15625 50.949219 101.753906 50.625 C 101.351562 50.300781 100.929688 50.003906 100.492188 49.730469 C 100.054688 49.457031 99.601562 49.210938 99.132812 48.996094 C 98.664062 48.777344 98.183594 48.589844 97.691406 48.433594 C 97.199219 48.273438 96.699219 48.148438 96.191406 48.050781 C 95.683594 47.957031 95.171875 47.890625 94.65625 47.859375 C 94.140625 47.824219 93.625 47.824219 93.109375 47.855469 C 92.59375 47.886719 92.082031 47.945312 91.574219 48.039062 C 91.066406 48.132812 90.566406 48.257812 90.074219 48.414062 C 89.582031 48.570312 89.101562 48.753906 88.632812 48.96875 C 88.160156 49.183594 87.707031 49.425781 87.265625 49.695312 C 86.824219 49.96875 86.402344 50.265625 86 50.585938 C 85.597656 50.910156 85.214844 51.257812 84.855469 51.625 C 84.492188 51.996094 84.15625 52.386719 83.84375 52.796875 C 83.53125 53.210938 83.242188 53.640625 82.984375 54.085938 C 82.722656 54.53125 82.492188 54.992188 82.289062 55.46875 C 82.085938 55.945312 81.910156 56.429688 81.769531 56.925781 C 81.625 57.425781 81.511719 57.929688 81.429688 58.4375 C 81.347656 58.949219 81.300781 59.460938 81.28125 59.980469 C 81.261719 60.496094 81.277344 61.011719 81.320312 61.527344 C 81.367188 62.042969 81.441406 62.554688 81.550781 63.058594 C 81.65625 63.566406 81.796875 64.0625 81.964844 64.550781 C 82.132812 65.039062 82.332031 65.515625 82.558594 65.980469 C 82.789062 66.445312 83.042969 66.894531 83.324219 67.324219 C 83.609375 67.757812 83.917969 68.171875 84.25 68.566406 C 84.582031 68.960938 84.941406 69.335938 85.320312 69.683594 C 85.699219 70.035156 86.097656 70.363281 86.519531 70.664062 C 86.9375 70.964844 87.375 71.238281 87.828125 71.488281 C 88.28125 71.734375 88.75 71.953125 89.226562 72.144531 C 89.707031 72.332031 90.199219 72.492188 90.699219 72.625 C 91.199219 72.753906 91.703125 72.851562 92.21875 72.917969 C 92.730469 72.984375 93.242188 73.023438 93.761719 73.027344 C 94.277344 73.027344 94.792969 73 95.304688 72.941406 C 95.816406 72.882812 96.324219 72.792969 96.828125 72.667969 C 97.328125 72.546875 97.820312 72.394531 98.304688 72.210938 C 98.785156 72.027344 99.257812 71.816406 99.714844 71.574219 C 100.171875 71.335938 100.609375 71.066406 101.035156 70.769531 C 101.460938 70.476562 101.863281 70.15625 102.25 69.808594 C 102.402344 70.183594 102.625 70.507812 102.925781 70.777344 L 111.78125 78.929688 C 112.046875 79.175781 112.351562 79.363281 112.695312 79.488281 C 113.035156 79.613281 113.386719 79.667969 113.753906 79.65625 C 114.117188 79.640625 114.460938 79.554688 114.792969 79.402344 C 115.121094 79.25 115.410156 79.039062 115.65625 78.769531 C 115.902344 78.503906 116.089844 78.195312 116.214844 77.855469 C 116.339844 77.511719 116.394531 77.160156 116.378906 76.796875 C 116.367188 76.433594 116.28125 76.085938 116.128906 75.753906 C 115.976562 75.421875 115.765625 75.132812 115.496094 74.886719 Z M 93.839844 70.390625 C 93.1875 70.390625 92.539062 70.328125 91.898438 70.199219 C 91.257812 70.074219 90.636719 69.886719 90.035156 69.636719 C 89.429688 69.386719 88.855469 69.078125 88.3125 68.714844 C 87.769531 68.355469 87.269531 67.941406 86.804688 67.480469 C 86.34375 67.015625 85.933594 66.515625 85.570312 65.972656 C 85.207031 65.425781 84.898438 64.855469 84.648438 64.25 C 84.398438 63.644531 84.210938 63.023438 84.082031 62.382812 C 83.953125 61.742188 83.890625 61.09375 83.890625 60.441406 C 83.890625 59.785156 83.953125 59.136719 84.082031 58.496094 C 84.207031 57.855469 84.398438 57.234375 84.648438 56.628906 C 84.898438 56.023438 85.203125 55.453125 85.566406 54.90625 C 85.929688 54.363281 86.339844 53.859375 86.800781 53.398438 C 87.265625 52.9375 87.765625 52.523438 88.308594 52.160156 C 88.851562 51.796875 89.425781 51.492188 90.027344 51.242188 C 90.632812 50.992188 91.253906 50.800781 91.894531 50.675781 C 92.535156 50.546875 93.179688 50.484375 93.835938 50.484375 C 94.488281 50.484375 95.132812 50.546875 95.773438 50.675781 C 96.414062 50.804688 97.035156 50.992188 97.640625 51.242188 C 98.242188 51.492188 98.816406 51.800781 99.359375 52.164062 C 99.902344 52.527344 100.402344 52.941406 100.863281 53.402344 C 101.324219 53.863281 101.738281 54.367188 102.101562 54.910156 C 102.460938 55.457031 102.769531 56.03125 103.019531 56.632812 C 103.269531 57.238281 103.457031 57.859375 103.582031 58.503906 C 103.710938 59.144531 103.773438 59.789062 103.773438 60.445312 C 103.773438 61.097656 103.710938 61.746094 103.585938 62.386719 C 103.457031 63.027344 103.269531 63.648438 103.019531 64.253906 C 102.769531 64.855469 102.464844 65.429688 102.101562 65.972656 C 101.742188 66.515625 101.328125 67.019531 100.867188 67.480469 C 100.40625 67.945312 99.902344 68.355469 99.363281 68.71875 C 98.820312 69.082031 98.246094 69.386719 97.644531 69.636719 C 97.039062 69.886719 96.417969 70.074219 95.777344 70.203125 C 95.136719 70.328125 94.492188 70.390625 93.839844 70.390625 Z M 93.839844 70.390625 " fill-opacity="1" fill-rule="nonzero"/><path fill="#cc202a" d="M 77.414062 60.445312 C 71.3125 57.234375 69.90625 49.6875 72.953125 45.464844 C 76.003906 41.246094 83.617188 40.320312 88.515625 45.144531 C 88.554688 45.144531 77.578125 49.878906 77.414062 60.445312 Z M 77.414062 60.445312 " fill-opacity="1" fill-rule="nonzero"/><path fill="#cc202a" d="M 273.117188 30.589844 L 252.296875 102.105469 L 240.484375 102.105469 L 225.796875 51.25 L 211.316406 102.105469 L 199.515625 102.105469 L 178.695312 30.589844 L 191.195312 30.589844 L 205.367188 82.242188 L 219.554688 30.695312 L 232.050781 30.589844 L 246.335938 82.242188 L 260.617188 30.589844 Z M 273.117188 30.589844 " fill-opacity="1" fill-rule="nonzero"/><path fill="#cc202a" d="M 290.378906 87.402344 C 292.863281 90.6875 296.828125 92.375 301.191406 92.375 C 302.667969 92.441406 304.117188 92.261719 305.535156 91.832031 C 306.953125 91.40625 308.261719 90.757812 309.457031 89.890625 C 311.328125 88.539062 312.746094 86.816406 313.71875 84.722656 L 325.527344 88.304688 C 324.542969 90.597656 323.25 92.703125 321.648438 94.613281 C 320.042969 96.523438 318.195312 98.160156 316.105469 99.523438 C 313.957031 100.84375 311.667969 101.851562 309.242188 102.542969 C 306.8125 103.234375 304.339844 103.585938 301.816406 103.59375 C 293.882812 103.59375 285.75 100.519531 280.996094 94.660156 C 278.863281 92 277.242188 89.058594 276.128906 85.835938 C 275.015625 82.613281 274.476562 79.296875 274.511719 75.886719 C 274.511719 68.238281 276.601562 61.085938 280.96875 55.820312 C 285.824219 49.960938 293.265625 46.984375 301.199219 46.984375 C 309.132812 46.984375 315.40625 49.566406 320.238281 55.425781 C 325.398438 61.582031 326.78125 69.625 326.089844 78.667969 L 287.429688 78.667969 C 287.703125 81.839844 288.5 85.019531 290.378906 87.402344 Z M 290.484375 62.277344 C 288.914062 64.34375 287.957031 66.664062 287.605469 69.238281 L 314.089844 69.238281 C 313.992188 66.539062 313.167969 64.089844 311.609375 61.890625 C 309.226562 58.910156 305.257812 57.421875 301.199219 57.421875 C 297.140625 57.421875 293.355469 58.703125 290.484375 62.277344 Z M 290.484375 62.277344 " fill-opacity="1" fill-rule="nonzero"/><path fill="#cc202a" d="M 388.6875 75.289062 C 388.6875 82.542969 387 89.390625 382.539062 95.054688 C 381.398438 96.410156 380.125 97.621094 378.71875 98.691406 C 377.3125 99.761719 375.804688 100.667969 374.199219 101.40625 C 372.589844 102.144531 370.925781 102.699219 369.195312 103.066406 C 367.464844 103.4375 365.71875 103.613281 363.949219 103.59375 C 357.699219 103.59375 352.054688 101.808594 347.78125 98.035156 L 347.78125 102.105469 L 337.207031 102.105469 L 337.207031 30.589844 L 349.207031 30.589844 L 349.207031 51.4375 C 351.324219 49.984375 353.609375 48.875 356.058594 48.113281 C 358.511719 47.351562 361.019531 46.96875 363.585938 46.96875 C 370.933594 46.96875 377.972656 49.851562 382.539062 55.507812 C 386.703125 60.882812 388.6875 67.941406 388.6875 75.289062 Z M 375.988281 75.289062 C 375.988281 70.421875 375 65.953125 372.8125 62.871094 C 370.339844 59.203125 366.464844 57.703125 361.800781 57.703125 C 357.734375 57.703125 354.070312 59.097656 351.691406 61.976562 C 349.007812 65.253906 347.816406 70.21875 347.816406 75.289062 C 347.816406 80.359375 349.007812 85.421875 351.691406 88.496094 C 354.261719 91.476562 357.9375 92.867188 362.203125 92.867188 C 366.472656 92.867188 370.53125 91.378906 373.015625 87.707031 C 375.191406 84.625 375.988281 80.054688 375.988281 75.289062 Z M 375.988281 75.289062 " fill-opacity="1" fill-rule="nonzero"/><path fill="#cc202a" d="M 442.75 102.105469 L 418.84375 71.714844 L 411.699219 71.714844 L 411.699219 102.105469 L 399.601562 102.105469 L 399.601562 30.589844 L 411.699219 30.589844 L 411.699219 60.488281 L 418.753906 60.488281 L 440.585938 30.589844 L 455.359375 30.589844 L 429.765625 65.953125 L 457.9375 102.105469 Z M 442.75 102.105469 " fill-opacity="1" fill-rule="nonzero"/><path fill="#cc202a" d="M 474.792969 87.402344 C 477.269531 90.6875 481.242188 92.375 485.605469 92.375 C 487.082031 92.4375 488.523438 92.257812 489.9375 91.832031 C 491.351562 91.40625 492.65625 90.757812 493.851562 89.890625 C 495.71875 88.539062 497.144531 86.816406 498.117188 84.722656 L 509.925781 88.304688 C 508.941406 90.597656 507.644531 92.699219 506.039062 94.613281 C 504.433594 96.523438 502.585938 98.160156 500.496094 99.523438 C 498.347656 100.84375 496.0625 101.851562 493.636719 102.542969 C 491.210938 103.234375 488.738281 103.585938 486.214844 103.59375 C 478.28125 103.59375 470.148438 100.519531 465.394531 94.660156 C 463.261719 92.003906 461.640625 89.058594 460.523438 85.835938 C 459.410156 82.613281 458.871094 79.296875 458.90625 75.886719 C 458.90625 68.238281 460.988281 61.085938 465.351562 55.820312 C 470.214844 49.960938 477.65625 46.984375 485.589844 46.984375 C 493.523438 46.984375 499.800781 49.566406 504.648438 55.425781 C 509.804688 61.582031 511.195312 69.625 510.503906 78.667969 L 471.84375 78.667969 C 472.109375 81.839844 472.90625 85.019531 474.792969 87.402344 Z M 474.890625 62.277344 C 473.324219 64.34375 472.367188 66.664062 472.015625 69.238281 L 498.496094 69.238281 C 498.402344 66.539062 497.578125 64.089844 496.023438 61.890625 C 493.640625 58.910156 489.671875 57.421875 485.613281 57.421875 C 481.554688 57.421875 477.769531 58.703125 474.890625 62.277344 Z M 474.890625 62.277344 " fill-opacity="1" fill-rule="nonzero"/><path fill="#cc202a" d="M 556.828125 67.347656 C 556.015625 64.671875 554.53125 62.453125 552.367188 60.691406 C 551.300781 59.871094 550.128906 59.25 548.855469 58.820312 C 547.582031 58.394531 546.273438 58.191406 544.929688 58.203125 C 540.566406 58.203125 536.996094 59.796875 534.617188 63.074219 C 532.039062 66.347656 531.339844 70.824219 531.339844 75.289062 C 531.339844 79.757812 532.039062 84.125 534.617188 87.402344 C 536.996094 90.6875 540.566406 92.375 544.929688 92.375 C 546.308594 92.433594 547.652344 92.261719 548.96875 91.851562 C 550.28125 91.4375 551.488281 90.816406 552.589844 89.984375 C 554.535156 88.378906 555.855469 86.359375 556.550781 83.933594 L 568.753906 86.613281 C 568.019531 89.121094 566.917969 91.453125 565.441406 93.609375 C 563.964844 95.765625 562.191406 97.636719 560.121094 99.226562 C 555.457031 102.5 551.398438 103.59375 544.945312 103.59375 C 536.214844 103.59375 529.769531 100.816406 525.109375 94.757812 C 520.542969 88.996094 518.660156 82.542969 518.660156 75.289062 C 518.660156 67.84375 520.648438 61.183594 525.109375 55.820312 C 530.066406 49.867188 536.320312 46.984375 545.050781 46.984375 C 550.699219 46.984375 554.46875 47.773438 558.929688 50.558594 C 560.160156 51.296875 561.300781 52.148438 562.359375 53.117188 C 563.417969 54.085938 564.367188 55.152344 565.210938 56.3125 C 566.054688 57.472656 566.773438 58.703125 567.371094 60.007812 C 567.96875 61.3125 568.425781 62.664062 568.753906 64.0625 Z M 556.828125 67.347656 " fill-opacity="1" fill-rule="nonzero"/><path fill="#cc202a" d="M 627.953125 76.183594 L 627.953125 102.105469 L 615.855469 102.105469 L 615.855469 76.683594 C 615.855469 70.421875 614.960938 64.464844 611.585938 61.285156 C 609.402344 59.203125 606.425781 58.105469 602.664062 58.203125 C 601.382812 58.203125 600.140625 58.417969 598.929688 58.84375 C 597.722656 59.269531 596.621094 59.886719 595.625 60.691406 C 593.445312 62.371094 592.054688 64.957031 591.355469 68.136719 C 590.863281 70.71875 590.761719 74.894531 590.761719 78.765625 L 590.761719 102.105469 L 578.753906 102.105469 L 578.753906 30.589844 L 589.371094 30.589844 L 589.371094 54.414062 C 589.703125 53.960938 590.066406 53.53125 590.457031 53.125 C 594.03125 49.054688 599.378906 47.265625 604.144531 47.066406 C 610.300781 46.671875 616.449219 47.660156 621.410156 52.425781 C 627.683594 58.105469 627.953125 67.539062 627.953125 76.183594 Z M 627.953125 76.183594 " fill-opacity="1" fill-rule="nonzero"/></svg>