<svg xmlns="http://www.w3.org/2000/svg" xmlns:xlink="http://www.w3.org/1999/xlink" width="40" zoomAndPan="magnify" viewBox="0 0 30 30.000001" height="40" preserveAspectRatio="xMidYMid meet" version="1.0"><defs><clipPath id="8b4db9779e"><path d="M 3.316406 4 L 26.539062 4 L 26.539062 25 L 3.316406 25 Z M 3.316406 4 " clip-rule="nonzero"/></clipPath></defs><path fill="#231f20" d="M 14.121094 20.570312 L 14.054688 20.570312 C 13.605469 20.722656 13.164062 20.859375 12.707031 20.996094 C 12.25 21.136719 11.871094 21.222656 11.449219 21.324219 L 11.144531 21.390625 L 10.8125 21.449219 C 10.703125 21.46875 10.59375 21.484375 10.484375 21.492188 L 10.382812 21.492188 C 10.121094 21.265625 9.875 21.035156 9.65625 20.800781 C 8.496094 19.625 7.644531 18.257812 7.101562 16.695312 L 7.039062 16.511719 L 7.234375 16.695312 C 7.457031 16.902344 7.691406 17.101562 7.921875 17.289062 L 8.132812 17.457031 C 8.632812 17.847656 9.148438 18.210938 9.6875 18.542969 C 11.089844 19.386719 12.566406 20.0625 14.121094 20.570312 Z M 14.121094 20.570312 " fill-opacity="1" fill-rule="nonzero"/><g clip-path="url(#8b4db9779e)"><path fill="#cc202a" d="M 26.097656 10.828125 C 26.019531 11.03125 25.929688 11.234375 25.84375 11.429688 C 25.660156 11.824219 25.464844 12.207031 25.25 12.585938 C 25.03125 12.964844 24.796875 13.3125 24.523438 13.660156 C 24.246094 14.007812 24 14.34375 23.722656 14.660156 C 23.558594 14.851562 23.382812 15.039062 23.207031 15.21875 C 23.332031 14.570312 23.398438 13.914062 23.410156 13.253906 L 23.519531 6.351562 C 19.375 7.011719 15.421875 5.007812 14.972656 4.769531 L 14.925781 4.769531 C 14.507812 5.007812 10.574219 7.011719 6.398438 6.351562 L 6.515625 13.253906 C 6.527344 13.953125 6.605469 14.648438 6.746094 15.335938 C 6.53125 15.117188 6.3125 14.894531 6.109375 14.660156 C 5.90625 14.429688 5.558594 14.007812 5.308594 13.660156 C 5.0625 13.3125 4.824219 12.933594 4.585938 12.585938 C 4.34375 12.238281 4.191406 11.824219 4.039062 11.429688 C 3.953125 11.234375 3.867188 11.03125 3.785156 10.828125 C 3.707031 10.625 3.605469 10.421875 3.53125 10.21875 C 3.53125 10.429688 3.605469 10.648438 3.664062 10.859375 C 3.722656 11.070312 3.773438 11.285156 3.828125 11.496094 C 3.96875 11.917969 4.128906 12.332031 4.308594 12.738281 C 4.492188 13.140625 4.703125 13.535156 4.933594 13.914062 L 5.113281 14.191406 L 5.304688 14.464844 C 5.359375 14.558594 5.425781 14.648438 5.492188 14.742188 L 5.695312 15.003906 C 6.109375 15.519531 6.554688 16.003906 7.039062 16.453125 L 7.234375 16.695312 C 7.457031 16.902344 7.691406 17.101562 7.921875 17.289062 L 8.132812 17.457031 C 8.632812 17.847656 9.148438 18.210938 9.6875 18.542969 C 11.085938 19.398438 12.566406 20.085938 14.121094 20.605469 L 14.054688 20.605469 C 13.605469 20.757812 13.164062 20.894531 12.707031 21.035156 C 12.25 21.171875 11.871094 21.257812 11.449219 21.359375 L 11.144531 21.425781 L 10.8125 21.484375 C 10.703125 21.503906 10.59375 21.519531 10.484375 21.527344 L 10.382812 21.527344 L 10.433594 21.570312 C 11.78125 22.71875 13.28125 23.613281 14.925781 24.265625 L 14.972656 24.265625 C 16.632812 23.613281 18.144531 22.710938 19.507812 21.554688 L 19.347656 21.554688 C 19.238281 21.550781 19.128906 21.535156 19.019531 21.511719 L 18.757812 21.511719 L 18.382812 21.433594 C 17.960938 21.332031 17.539062 21.230469 17.125 21.105469 C 16.714844 20.984375 16.226562 20.832031 15.777344 20.679688 L 15.710938 20.679688 C 17.265625 20.15625 18.746094 19.46875 20.144531 18.617188 C 20.808594 18.203125 21.445312 17.746094 22.046875 17.246094 C 22.351562 17 22.644531 16.730469 22.925781 16.460938 C 23.359375 16.035156 23.761719 15.585938 24.136719 15.109375 L 24.339844 14.851562 C 24.40625 14.753906 24.472656 14.667969 24.53125 14.574219 L 24.71875 14.296875 L 24.898438 14.023438 C 25.132812 13.644531 25.339844 13.25 25.523438 12.847656 C 25.707031 12.441406 25.863281 12.027344 26.003906 11.605469 C 26.0625 11.394531 26.125 11.183594 26.171875 10.96875 C 26.214844 10.75 26.265625 10.539062 26.300781 10.328125 C 26.25 10.421875 26.183594 10.625 26.097656 10.828125 Z M 17.105469 21.339844 C 17.324219 21.382812 17.539062 21.417969 17.757812 21.449219 C 17.976562 21.484375 18.195312 21.511719 18.410156 21.527344 L 18.65625 21.527344 C 17.539062 22.371094 16.332031 23.050781 15.027344 23.566406 L 14.925781 23.566406 C 13.625 23.046875 12.414062 22.363281 11.296875 21.511719 L 11.464844 21.511719 C 11.683594 21.511719 11.902344 21.46875 12.117188 21.433594 C 12.335938 21.398438 12.554688 21.367188 12.773438 21.324219 C 13.472656 21.195312 14.164062 21.03125 14.847656 20.832031 L 14.976562 20.832031 C 15.679688 21.035156 16.386719 21.207031 17.105469 21.339844 Z M 22.910156 13.355469 C 22.898438 14.234375 22.777344 15.097656 22.546875 15.945312 C 21.714844 16.6875 20.820312 17.351562 19.871094 17.933594 C 18.398438 18.839844 16.851562 19.597656 15.230469 20.207031 L 14.992188 20.292969 L 14.753906 20.207031 C 13.132812 19.597656 11.589844 18.839844 10.117188 17.933594 C 9.253906 17.421875 8.4375 16.84375 7.667969 16.199219 L 7.480469 16.039062 C 7.230469 15.15625 7.097656 14.257812 7.082031 13.339844 L 6.996094 6.917969 C 10.847656 7.527344 14.535156 5.660156 14.976562 5.464844 C 15.398438 5.683594 19.078125 7.546875 22.960938 6.917969 Z M 22.910156 13.355469 " fill-opacity="1" fill-rule="nonzero"/></g><path fill="#231f20" d="M 14.992188 5.445312 C 14.570312 5.660156 10.882812 7.527344 7.007812 6.894531 L 7.109375 13.320312 C 7.125 14.234375 7.257812 15.136719 7.507812 16.019531 L 7.699219 16.179688 C 8.441406 16.8125 9.230469 17.386719 10.066406 17.898438 C 11.539062 18.804688 13.082031 19.5625 14.703125 20.171875 L 14.941406 20.257812 L 15.179688 20.171875 C 16.800781 19.5625 18.347656 18.804688 19.820312 17.898438 C 20.765625 17.332031 21.652344 16.6875 22.484375 15.96875 C 22.710938 15.117188 22.832031 14.253906 22.847656 13.375 L 22.953125 6.953125 C 19.09375 7.527344 15.414062 5.660156 14.992188 5.445312 Z M 17.003906 15.054688 C 16.625 15.058594 16.292969 14.9375 16 14.699219 C 15.609375 14.382812 15.410156 13.976562 15.414062 13.472656 C 15.414062 13.261719 15.453125 13.058594 15.535156 12.863281 C 15.617188 12.667969 15.730469 12.496094 15.878906 12.347656 C 16.027344 12.199219 16.199219 12.082031 16.394531 12.003906 C 16.589844 11.921875 16.792969 11.882812 17.003906 11.882812 C 17.257812 11.882812 17.5 11.941406 17.730469 12.054688 C 18.058594 12.21875 18.300781 12.46875 18.457031 12.804688 C 18.613281 13.140625 18.644531 13.484375 18.558594 13.84375 C 18.472656 14.203125 18.285156 14.492188 17.992188 14.71875 C 17.703125 14.945312 17.371094 15.058594 17.003906 15.054688 Z M 17.003906 15.054688 " fill-opacity="1" fill-rule="nonzero"/><path fill="#231f20" d="M 22.949219 16.351562 C 22.429688 18.0625 21.546875 19.554688 20.296875 20.832031 C 20.066406 21.0625 19.824219 21.304688 19.574219 21.554688 L 19.414062 21.554688 C 19.304688 21.550781 19.195312 21.535156 19.085938 21.511719 L 18.824219 21.511719 L 18.449219 21.433594 C 18.027344 21.332031 17.605469 21.230469 17.191406 21.105469 C 16.777344 20.984375 16.292969 20.832031 15.84375 20.679688 L 15.777344 20.679688 C 17.332031 20.15625 18.808594 19.46875 20.210938 18.617188 C 20.875 18.203125 21.507812 17.746094 22.113281 17.246094 C 22.375 16.890625 22.664062 16.621094 22.949219 16.351562 Z M 22.949219 16.351562 " fill-opacity="1" fill-rule="nonzero"/><path fill="#231f20" d="M 18.621094 21.550781 C 17.503906 22.394531 16.292969 23.074219 14.992188 23.589844 L 14.925781 23.589844 C 13.625 23.070312 12.414062 22.382812 11.296875 21.535156 L 11.464844 21.535156 C 11.683594 21.535156 11.902344 21.492188 12.117188 21.453125 C 12.335938 21.417969 12.554688 21.390625 12.773438 21.347656 C 13.472656 21.214844 14.164062 21.050781 14.847656 20.851562 L 14.976562 20.851562 C 15.679688 21.050781 16.386719 21.214844 17.105469 21.339844 C 17.324219 21.382812 17.539062 21.417969 17.757812 21.449219 C 17.976562 21.484375 18.195312 21.511719 18.410156 21.527344 Z M 18.621094 21.550781 " fill-opacity="1" fill-rule="nonzero"/><path fill="#cc202a" d="M 20.574219 12.09375 C 20.308594 12.632812 19.9375 13.09375 19.464844 13.472656 C 19.460938 13.191406 19.414062 12.921875 19.320312 12.660156 C 19.230469 12.394531 19.09375 12.15625 18.921875 11.9375 C 18.746094 11.71875 18.539062 11.539062 18.304688 11.390625 C 18.066406 11.242188 17.8125 11.136719 17.539062 11.074219 C 17.414062 10.753906 17.238281 10.460938 17.007812 10.203125 C 16.777344 9.945312 16.507812 9.738281 16.199219 9.578125 C 15.890625 9.417969 15.566406 9.320312 15.222656 9.28125 C 14.878906 9.242188 14.539062 9.261719 14.203125 9.347656 C 13.867188 9.433594 13.558594 9.574219 13.273438 9.773438 C 12.992188 9.972656 12.75 10.214844 12.558594 10.5 C 12.363281 10.789062 12.226562 11.101562 12.144531 11.4375 C 12.066406 11.773438 12.046875 12.113281 12.089844 12.457031 C 12.136719 12.800781 12.238281 13.125 12.402344 13.429688 C 12.566406 13.734375 12.78125 14 13.042969 14.226562 C 13.300781 14.457031 13.59375 14.628906 13.921875 14.75 C 14.246094 14.867188 14.582031 14.925781 14.925781 14.921875 L 15.015625 14.921875 C 15.136719 15.257812 15.796875 15.648438 15.796875 15.648438 C 11.886719 16.308594 9.265625 12.121094 9.265625 12.121094 C 9.265625 12.121094 14.359375 4.007812 20.574219 12.09375 Z M 20.574219 12.09375 " fill-opacity="1" fill-rule="nonzero"/><path fill="#cc202a" d="M 20.464844 15.777344 L 19.050781 14.515625 C 18.980469 14.449219 18.898438 14.414062 18.804688 14.40625 C 18.933594 14.148438 19.003906 13.875 19.019531 13.589844 C 19.03125 13.300781 18.984375 13.023438 18.875 12.753906 C 18.769531 12.484375 18.613281 12.25 18.40625 12.050781 C 18.195312 11.851562 17.957031 11.703125 17.683594 11.605469 C 17.464844 11.53125 17.238281 11.492188 17.003906 11.488281 C 16.734375 11.488281 16.476562 11.539062 16.230469 11.640625 C 15.980469 11.742188 15.765625 11.890625 15.574219 12.078125 C 15.386719 12.269531 15.238281 12.484375 15.136719 12.734375 C 15.035156 12.980469 14.984375 13.238281 14.984375 13.507812 C 14.988281 14.039062 15.167969 14.496094 15.53125 14.886719 C 15.710938 15.078125 15.921875 15.226562 16.160156 15.335938 C 16.398438 15.445312 16.652344 15.503906 16.914062 15.515625 C 17.175781 15.527344 17.429688 15.488281 17.679688 15.402344 C 17.925781 15.3125 18.148438 15.183594 18.347656 15.007812 C 18.375 15.066406 18.410156 15.117188 18.453125 15.160156 L 19.871094 16.460938 C 19.957031 16.546875 20.058594 16.589844 20.183594 16.589844 C 20.304688 16.589844 20.40625 16.546875 20.496094 16.460938 C 20.59375 16.367188 20.640625 16.25 20.636719 16.113281 C 20.628906 15.976562 20.574219 15.863281 20.464844 15.777344 Z M 17.003906 15.054688 C 16.625 15.058594 16.292969 14.9375 16 14.699219 C 15.609375 14.382812 15.410156 13.976562 15.414062 13.472656 C 15.414062 13.261719 15.453125 13.058594 15.535156 12.863281 C 15.617188 12.667969 15.730469 12.496094 15.878906 12.347656 C 16.027344 12.199219 16.199219 12.082031 16.394531 12.003906 C 16.589844 11.921875 16.792969 11.882812 17.003906 11.882812 C 17.257812 11.882812 17.5 11.941406 17.730469 12.054688 C 18.058594 12.21875 18.300781 12.46875 18.457031 12.804688 C 18.613281 13.140625 18.644531 13.484375 18.558594 13.84375 C 18.472656 14.203125 18.285156 14.492188 17.992188 14.71875 C 17.703125 14.945312 17.371094 15.058594 17.003906 15.054688 Z M 17.003906 15.054688 " fill-opacity="1" fill-rule="nonzero"/><path fill="#cc202a" d="M 14.382812 13.472656 C 14.167969 13.367188 13.984375 13.226562 13.828125 13.046875 C 13.671875 12.867188 13.558594 12.660156 13.492188 12.433594 C 13.421875 12.207031 13.402344 11.972656 13.429688 11.738281 C 13.460938 11.5 13.535156 11.28125 13.65625 11.074219 C 13.8125 10.898438 14 10.761719 14.214844 10.664062 C 14.429688 10.5625 14.65625 10.511719 14.890625 10.507812 C 15.128906 10.503906 15.355469 10.546875 15.574219 10.636719 C 15.792969 10.726562 15.984375 10.855469 16.148438 11.023438 C 16.148438 11.023438 14.40625 11.78125 14.382812 13.472656 Z M 14.382812 13.472656 " fill-opacity="1" fill-rule="nonzero"/></svg>